<svg width="179" height="106" fill="none" xmlns="http://www.w3.org/2000/svg"><path d="M11.65 10.008L19.87 33.21l8.174-23.203H36.7V42h-6.614v-8.745l.66-15.095L22.11 42h-4.526L8.97 18.182l.66 15.073V42H3.037V10.008h8.613zM55.817 42c-.293-.571-.506-1.282-.637-2.131-1.538 1.714-3.538 2.57-5.999 2.57-2.329 0-4.263-.673-5.8-2.021-1.524-1.348-2.286-3.047-2.286-5.098 0-2.52.93-4.453 2.79-5.8 1.876-1.348 4.578-2.03 8.109-2.044h2.922v-1.362c0-1.099-.286-1.978-.857-2.637-.556-.66-1.443-.989-2.659-.989-1.069 0-1.911.257-2.526.77-.601.512-.901 1.215-.901 2.109h-6.35c0-1.377.424-2.652 1.274-3.823.85-1.172 2.05-2.088 3.603-2.747 1.553-.674 3.296-1.01 5.23-1.01 2.93 0 5.252.739 6.965 2.218 1.729 1.465 2.593 3.53 2.593 6.197v10.305c.015 2.256.33 3.962.945 5.12V42h-6.416zm-5.252-4.416c.938 0 1.802-.206 2.593-.616.791-.425 1.377-.989 1.758-1.692V31.19h-2.373c-3.179 0-4.87 1.1-5.076 3.296l-.022.374c0 .79.279 1.443.835 1.956.557.512 1.319.769 2.285.769zm14.678-7.647c0-3.647.864-6.585 2.593-8.811 1.743-2.227 4.087-3.34 7.031-3.34 2.608 0 4.636.894 6.087 2.68l.263-2.24h5.757v22.983c0 2.08-.476 3.89-1.428 5.427-.938 1.538-2.263 2.71-3.977 3.516s-3.72 1.208-6.02 1.208a12.92 12.92 0 0 1-5.098-1.054c-1.656-.689-2.908-1.582-3.758-2.681l2.813-3.867c1.582 1.772 3.5 2.658 5.757 2.658 1.684 0 2.995-.454 3.933-1.362.937-.893 1.406-2.168 1.406-3.823v-1.275c-1.465 1.656-3.391 2.483-5.779 2.483-2.856 0-5.17-1.113-6.943-3.34-1.758-2.24-2.637-5.207-2.637-8.898v-.264zm6.35.461c0 2.154.432 3.846 1.297 5.076.864 1.216 2.05 1.824 3.56 1.824 1.933 0 3.317-.725 4.152-2.175v-9.998c-.85-1.45-2.22-2.175-4.109-2.175-1.523 0-2.724.622-3.603 1.867-.865 1.245-1.297 3.106-1.297 5.581zm26.126-12.172l.197 2.746c1.7-2.124 3.978-3.186 6.834-3.186 2.52 0 4.395.74 5.625 2.22 1.23 1.479 1.86 3.69 1.89 6.635V42h-6.35V26.795c0-1.348-.293-2.322-.879-2.922-.586-.616-1.56-.923-2.923-.923-1.787 0-3.127.761-4.02 2.285V42h-6.35V18.226h5.976zm33.618 21.357c-1.567 1.904-3.735 2.857-6.504 2.857-2.549 0-4.497-.733-5.845-2.198-1.333-1.465-2.014-3.61-2.043-6.438V18.226h6.35v15.358c0 2.476 1.128 3.714 3.384 3.714 2.153 0 3.633-.747 4.438-2.241V18.226h6.372V42h-5.976l-.176-2.417zm16.897-21.357l.198 2.658c1.684-2.065 3.962-3.098 6.833-3.098 3.062 0 5.164 1.209 6.306 3.626 1.67-2.417 4.051-3.626 7.141-3.626 2.579 0 4.497.755 5.757 2.263 1.26 1.495 1.89 3.75 1.89 6.768V42h-6.372V26.839c0-1.348-.264-2.33-.791-2.944-.528-.63-1.458-.945-2.791-.945-1.904 0-3.222.908-3.955 2.724L162.471 42h-6.35V26.86c0-1.376-.271-2.372-.813-2.987-.542-.616-1.465-.923-2.768-.923-1.802 0-3.106.747-3.912 2.24V42h-6.35V18.226h5.955zM19.538 81.606c0-1.245-.44-2.197-1.318-2.856-.88-.674-2.461-1.377-4.746-2.11-2.286-.746-4.095-1.479-5.428-2.197-3.632-1.962-5.449-4.607-5.449-7.932 0-1.728.484-3.266 1.45-4.614.982-1.362 2.38-2.424 4.197-3.186 1.831-.762 3.882-1.143 6.152-1.143 2.286 0 4.322.418 6.109 1.253 1.787.82 3.171 1.985 4.153 3.494.996 1.508 1.494 3.222 1.494 5.141H19.56c0-1.465-.461-2.6-1.384-3.406-.923-.82-2.22-1.23-3.89-1.23-1.61 0-2.863.344-3.757 1.032-.893.674-1.34 1.568-1.34 2.681 0 1.04.52 1.912 1.56 2.615 1.055.703 2.6 1.362 4.636 1.978 3.75 1.127 6.482 2.526 8.196 4.196 1.714 1.67 2.57 3.75 2.57 6.24 0 2.77-1.046 4.944-3.141 6.526-2.095 1.568-4.915 2.352-8.46 2.352-2.46 0-4.702-.447-6.723-1.34-2.022-.91-3.567-2.147-4.637-3.714-1.054-1.568-1.582-3.384-1.582-5.45h6.614c0 3.53 2.11 5.296 6.328 5.296 1.568 0 2.79-.315 3.67-.945.879-.644 1.318-1.538 1.318-2.68zm16.875-12.788c1.685-2.021 3.801-3.032 6.35-3.032 5.156 0 7.771 2.996 7.844 8.987V90h-6.35V74.949c0-1.363-.293-2.366-.879-3.01-.586-.66-1.56-.99-2.922-.99-1.86 0-3.208.719-4.043 2.154V90h-6.35V56.25h6.35v12.568zm17.996 9.075c0-2.358.454-4.46 1.362-6.306.908-1.846 2.212-3.274 3.911-4.285 1.714-1.01 3.699-1.516 5.955-1.516 3.208 0 5.823.982 7.844 2.945 2.036 1.962 3.171 4.628 3.406 7.998l.044 1.626c0 3.647-1.018 6.577-3.055 8.789-2.036 2.197-4.768 3.295-8.195 3.295-3.428 0-6.167-1.098-8.218-3.295-2.036-2.198-3.054-5.186-3.054-8.965v-.286zm6.35.462c0 2.255.425 3.984 1.274 5.185.85 1.187 2.066 1.78 3.648 1.78 1.538 0 2.739-.586 3.603-1.758.864-1.186 1.297-3.076 1.297-5.669 0-2.212-.433-3.926-1.297-5.142-.864-1.215-2.08-1.823-3.647-1.823-1.553 0-2.754.608-3.604 1.823-.85 1.202-1.274 3.07-1.274 5.603zm31.025 12.084c-3.486 0-6.328-1.069-8.525-3.208-2.183-2.138-3.274-4.987-3.274-8.547v-.615c0-2.388.461-4.52 1.384-6.394.923-1.89 2.227-3.34 3.911-4.35 1.7-1.026 3.633-1.539 5.801-1.539 3.252 0 5.808 1.025 7.668 3.076 1.876 2.051 2.813 4.959 2.813 8.723v2.593h-15.14c.206 1.553.821 2.798 1.847 3.736 1.04.937 2.35 1.406 3.933 1.406 2.446 0 4.358-.886 5.734-2.659l3.121 3.494c-.953 1.347-2.242 2.402-3.868 3.164-1.625.747-3.427 1.12-5.405 1.12zm-.725-19.511c-1.26 0-2.285.425-3.076 1.274-.776.85-1.275 2.066-1.494 3.648h8.833v-.506c-.03-1.406-.41-2.49-1.143-3.252-.732-.776-1.772-1.164-3.12-1.164zm27.004 12.502c0-.776-.388-1.384-1.164-1.824-.762-.454-1.992-.856-3.691-1.208-5.655-1.187-8.482-3.589-8.482-7.207 0-2.11.872-3.867 2.615-5.273 1.758-1.421 4.05-2.132 6.877-2.132 3.018 0 5.428.71 7.229 2.132 1.817 1.42 2.725 3.266 2.725 5.537h-6.35c0-.909-.293-1.656-.879-2.242-.586-.6-1.502-.9-2.747-.9-1.069 0-1.897.241-2.483.725-.586.483-.879 1.098-.879 1.845 0 .703.33 1.275.989 1.714.674.425 1.802.799 3.384 1.12 1.582.308 2.915.66 3.999 1.055 3.355 1.23 5.032 3.362 5.032 6.394 0 2.169-.93 3.926-2.791 5.274-1.86 1.333-4.262 2-7.207 2-1.992 0-3.764-.352-5.317-1.055-1.538-.718-2.747-1.692-3.626-2.923-.879-1.245-1.318-2.585-1.318-4.02H110c.058 1.127.476 1.992 1.252 2.592.776.6 1.816.901 3.12.901 1.216 0 2.131-.227 2.747-.681.63-.469.944-1.077.944-1.824z" fill="#fff"/><rect x="130" y="50" width="49" height="4" rx="1" fill="#E26161"/><rect x="115" y="57" width="49" height="4" rx="1" fill="#E26161"/><rect x="130" y="64" width="49" height="4" rx="1" fill="#E26161"/></svg>